<svg width="35" height="42" viewBox="0 0 35 42" fill="none" xmlns="http://www.w3.org/2000/svg">
<path d="M29.4862 25.1654C32.0752 25.1654 34.1737 27.2642 34.1737 29.8529V31.7385C34.1737 34.0171 33.1791 36.1821 31.4502 37.6662C28.1889 40.466 23.5216 41.8346 17.5008 41.8346C11.4809 41.8346 6.81672 40.4667 3.56074 37.6673C1.83445 36.1831 0.841431 34.0198 0.841431 31.7431V29.8529C0.841431 27.2642 2.9401 25.1654 5.52893 25.1654H29.4862ZM17.2893 0.180927L17.5014 0.166656C18.2925 0.166656 18.9462 0.754469 19.0495 1.51714L19.0639 1.72916L19.0622 3.28957L26.355 3.29064C28.9437 3.29064 31.0425 5.3893 31.0425 7.97813V17.3627C31.0425 19.9514 28.9437 22.0502 26.355 22.0502H8.64653C6.0577 22.0502 3.95903 19.9514 3.95903 17.3627V7.97813C3.95903 5.3893 6.0577 3.29064 8.64653 3.29064L15.9372 3.28957L15.9389 1.72916C15.9389 0.938115 16.5266 0.284386 17.2893 0.180927L17.5014 0.166656L17.2893 0.180927ZM12.8117 9.54063C11.3743 9.54063 10.209 10.7059 10.209 12.1433C10.209 13.5807 11.3743 14.746 12.8117 14.746C14.2491 14.746 15.4143 13.5807 15.4143 12.1433C15.4143 10.7059 14.2491 9.54063 12.8117 9.54063ZM22.1716 9.54063C20.7341 9.54063 19.5689 10.7059 19.5689 12.1433C19.5689 13.5807 20.7341 14.746 22.1716 14.746C23.6091 14.746 24.7743 13.5807 24.7743 12.1433C24.7743 10.7059 23.6091 9.54063 22.1716 9.54063Z" fill="#2B3487"/>
</svg>
