<svg width="35" height="19" viewBox="0 0 35 19" fill="none" xmlns="http://www.w3.org/2000/svg">
<path d="M17.6592 5.4288L17.3229 5.12266L16.9863 5.42853L4.08725 17.1518L4.08514 17.1538C3.33364 17.8447 2.08382 17.8471 1.31955 17.152C0.947412 16.8135 0.772705 16.3758 0.772705 15.9526C0.772705 15.5296 0.947293 15.092 1.31917 14.7536C1.3193 14.7534 1.31942 14.7533 1.31955 14.7532L16.0163 1.41326C16.7821 0.782819 17.978 0.802848 18.7113 1.46976C18.7114 1.4698 18.7114 1.46984 18.7115 1.46988L33.3135 14.7606C33.3138 14.7609 33.314 14.7611 33.3142 14.7613C34.0447 15.4335 34.0484 16.4946 33.3155 17.1612L33.3135 17.163C32.5621 17.8538 31.3124 17.8564 30.5481 17.1613C30.548 17.1613 30.548 17.1612 30.5479 17.1612L17.6592 5.4288Z" fill="#32699F" stroke="#32699F"/>
</svg>
