<svg width="41" height="40" viewBox="0 0 41 40" fill="none" xmlns="http://www.w3.org/2000/svg">
<path fill-rule="evenodd" clip-rule="evenodd" d="M20.4984 0C9.45561 0 0.5 9.18089 0.5 20.5068C0.5 29.5655 6.23017 37.252 14.1777 39.9649C15.1784 40.1526 15.543 39.5193 15.543 38.9754C15.543 38.4882 15.5256 37.1992 15.5152 35.4884C9.95201 36.7271 8.77826 32.7391 8.77826 32.7391C7.86845 30.3699 6.55715 29.7393 6.55715 29.7393C4.74123 28.4678 6.69462 28.4929 6.69462 28.4929C8.70207 28.6378 9.75798 30.6065 9.75798 30.6065C11.542 33.7398 14.4396 32.8348 15.579 32.3098C15.7607 30.9855 16.2776 30.0816 16.8485 29.5693C12.4076 29.0506 7.73825 27.292 7.73825 19.4342C7.73825 17.1948 8.51792 15.3656 9.79728 13.9318C9.59089 13.4131 8.90466 11.3284 9.99392 8.50481C9.99392 8.50481 11.6723 7.95347 15.4932 10.6059C17.0882 10.1514 18.7997 9.92484 20.5002 9.91603C22.1995 9.92317 23.9098 10.1515 25.5072 10.6059C29.3256 7.95347 31.0016 8.50481 31.0016 8.50481C32.0931 11.3284 31.4067 13.4131 31.2017 13.9318C32.4835 15.3656 33.257 17.1948 33.257 19.4342C33.257 27.3122 28.5803 29.0455 24.1259 29.5528C24.8429 30.186 25.4826 31.4374 25.4826 33.3509C25.4826 36.0914 25.4582 38.3032 25.4582 38.9754C25.4582 39.5243 25.8192 40.1626 26.8333 39.9624C34.7748 37.2445 40.5 29.5643 40.5 20.5068C40.5 9.18089 31.5444 0 20.4979 0" fill="white"/>
</svg>
