<svg xmlns="http://www.w3.org/2000/svg" version="1.1" xmlns:xlink="http://www.w3.org/1999/xlink" xmlns:svgjs="http://svgjs.dev/svgjs" width="1000" height="1000" viewBox="0 0 1000 1000"><rect width="1000" height="1000" fill="#ffffff"></rect><g transform="matrix(0.7,0,0,0.7,150,281.25)"><svg viewBox="0 0 576 360" data-background-color="#2e3bc0" preserveAspectRatio="xMidYMid meet" height="625" width="1000" xmlns="http://www.w3.org/2000/svg" xmlns:xlink="http://www.w3.org/1999/xlink"><defs></defs><g id="tight-bounds" transform="matrix(1,0,0,1,0,0)"><svg viewBox="0 0 576 360" height="360" width="576"><g><svg></svg></g><g><svg viewBox="0 0 576 360" height="360" width="576"><g><path d="M132.115 90l155.885-90 155.885 90v180l-155.885 90-155.885-90z" fill="#ffffff" data-fill-palette-color="tertiary"></path></g><g transform="matrix(1,0,0,1,172.8,111.17308165777595)"><svg viewBox="0 0 230.4 137.6538366844481" height="137.6538366844481" width="230.4"><g><svg viewBox="0 0 230.4 137.6538366844481" height="137.6538366844481" width="230.4"><g><svg viewBox="0 0 230.4 137.6538366844481" height="137.6538366844481" width="230.4"><g><svg viewBox="0 0 230.4 137.6538366844481" height="137.6538366844481" width="230.4"><g><svg viewBox="0 0 230.4 137.6538366844481" height="137.6538366844481" width="230.4"><g transform="matrix(1,0,0,1,0,0)"><svg width="230.4" viewBox="2.690000057220459 -35.54999923706055 59.4900016784668 35.54999923706055" height="137.6538366844481" data-palette-color="#2e3bc0"><path d="M17.11 0L2.69 0 2.69-35.55 15.45-35.55Q22.31-35.55 25.89-33.03 29.47-30.52 29.47-25.73L29.47-25.73Q29.47-22.97 28.2-21.02 26.93-19.07 24.46-18.14L24.46-18.14Q27.25-17.41 28.74-15.41 30.22-13.4 30.22-10.52L30.22-10.52Q30.22-5.3 26.92-2.67 23.61-0.05 17.11 0L17.11 0ZM17.26-15.11L11.25-15.11 11.25-6.59 16.87-6.59Q19.19-6.59 20.43-7.65 21.68-8.72 21.68-10.64L21.68-10.64Q21.68-15.09 17.26-15.11L17.26-15.11ZM11.25-28.93L11.25-20.73 15.72-20.73Q18.53-20.75 19.73-21.75 20.92-22.75 20.92-24.71L20.92-24.71Q20.92-26.95 19.63-27.94 18.33-28.93 15.45-28.93L15.45-28.93 11.25-28.93ZM62.18-35.55L62.18-28.93 51.51-28.93 51.51 0 42.94 0 42.94-28.93 32.47-28.93 32.47-35.55 62.18-35.55Z" opacity="1" transform="matrix(1,0,0,1,0,0)" fill="#2e3bc0" class="undefined-text-0" data-fill-palette-color="quaternary" id="text-0"></path></svg></g></svg></g></svg></g></svg></g></svg></g></svg></g></svg></g></svg><rect width="576" height="360" fill="none" stroke="none" visibility="hidden"></rect></g></svg></g></svg>