<svg width="41" height="40" viewBox="0 0 41 40" fill="none" xmlns="http://www.w3.org/2000/svg">
<path d="M34.7365 5.77281C31.7104 2.75605 28.4888 4.71136 26.4683 6.72253L7.39944 25.7914C5.37896 27.8119 3.26536 30.8845 6.44972 34.0596C9.62477 37.2346 12.6881 35.121 14.7086 33.1006L33.7775 14.0317C35.798 12.0205 37.7533 8.78957 34.7365 5.77281ZM16.5149 4.99069L20.5559 9.03166L24.662 4.9162C24.9413 4.63687 25.2207 4.37616 25.5093 4.13408C25.081 1.96462 23.8426 0 20.5466 0C17.2505 0 16.0121 1.97393 15.5931 4.14339C15.9004 4.41341 16.2076 4.68343 16.5149 4.99069ZM24.662 34.9814L20.5559 30.8752L16.5149 34.9069C16.2076 35.2142 15.9097 35.5028 15.6024 35.7635C16.068 37.9795 17.3715 40 20.5466 40C23.7309 40 25.0438 37.9609 25.5 35.7449C25.2207 35.5028 24.9413 35.2607 24.662 34.9814ZM14.8017 14.7765H7.01769C4.15922 14.7765 0.5 15.6797 0.5 19.9441C0.5 23.1378 2.53911 24.4413 4.76443 24.8976C5.02514 24.5996 14.8017 14.7765 14.8017 14.7765ZM36.3566 14.9907C36.1145 15.27 26.3101 25.121 26.3101 25.121H33.9823C36.8408 25.121 40.5 24.4413 40.5 19.9441C40.5 16.6574 38.5354 15.419 36.3566 14.9907ZM17.3529 12.2253L18.7402 10.838L14.7086 6.79702C12.6881 4.77654 9.62477 2.66294 6.44041 5.8473C4.11266 8.17505 4.63408 10.4469 5.86313 12.2812C6.24488 12.2533 17.3529 12.2253 17.3529 12.2253ZM23.7495 27.6723L22.3529 29.0689L26.4683 33.175C28.4888 35.1955 31.7104 37.1508 34.7272 34.1341C36.9804 31.8808 36.4683 29.5065 35.2207 27.6164C34.8203 27.6443 23.7495 27.6723 23.7495 27.6723Z" fill="white"/>
</svg>
