<?xml version="1.0" standalone="no"?>
<!DOCTYPE svg PUBLIC "-//W3C//DTD SVG 20010904//EN"
 "http://www.w3.org/TR/2001/REC-SVG-20010904/DTD/svg10.dtd">
<svg version="1.0" xmlns="http://www.w3.org/2000/svg"
 width="500.000000pt" height="500.000000pt" viewBox="0 0 500.000000 500.000000"
 preserveAspectRatio="xMidYMid meet">
<metadata>
Created by potrace 1.14, written by Peter Selinger 2001-2017
</metadata>
<g transform="translate(0.000000,500.000000) scale(0.100000,-0.100000)"
fill="#000000" stroke="none">
<path d="M0 2500 l0 -2500 2500 0 2500 0 0 2500 0 2500 -2500 0 -2500 0 0
-2500z m3451 1638 l939 -541 0 -1097 0 -1097 -939 -541 c-516 -298 -944 -542
-951 -542 -7 0 -435 244 -951 542 l-939 541 0 1097 0 1097 938 541 c515 298
943 542 951 542 8 0 436 -244 952 -542z"/>
<path d="M1100 2500 l0 -842 413 5 c457 5 504 11 632 71 170 80 249 217 248
426 -1 120 -28 188 -102 261 -38 37 -75 63 -110 76 l-53 20 43 22 c65 33 124
96 156 165 25 55 28 71 27 171 0 148 -22 205 -113 296 -52 51 -82 72 -141 96
-142 59 -187 64 -612 70 l-388 5 0 -842z m735 509 c127 -36 168 -222 69 -316
-44 -42 -102 -53 -269 -53 l-135 0 0 188 c0 104 3 192 8 197 10 11 279 -2 327
-16z m61 -660 c66 -32 94 -86 94 -179 0 -87 -27 -135 -95 -169 -47 -25 -57
-26 -220 -26 l-170 0 -3 190 c-1 104 0 196 3 203 4 12 35 14 173 10 154 -4
173 -6 218 -29z"/>
<path d="M2500 3185 l0 -155 245 0 245 0 2 -682 3 -683 200 0 200 0 3 683 2
682 250 0 250 0 0 155 0 155 -700 0 -700 0 0 -155z"/>
</g>
</svg>
