<svg width="51" height="50" viewBox="0 0 51 50" fill="none" xmlns="http://www.w3.org/2000/svg">
<path d="M45.971 2.60383C45.2678 4.2833 44.3757 5.87814 43.3012 7.34279C38.5998 2.64289 32.2184 0 25.5699 0C11.8173 0 0.5 11.3267 0.5 25.0944C0.5 31.962 3.31304 38.5366 8.28796 43.2756L9.21262 44.0958C13.7317 47.9039 19.4555 50 25.3616 50C38.437 50 49.4287 39.7539 50.3599 26.6957C51.0436 20.3033 49.1683 12.2185 45.971 2.60383ZM11.8498 43.4188C11.4461 43.9201 10.8275 44.213 10.1829 44.213C9.00425 44.213 8.04052 43.2431 8.04052 42.0648C8.04052 40.8866 9.01076 39.9167 10.1829 39.9167C10.6712 39.9167 11.1531 40.0859 11.5308 40.3984C12.4489 41.1405 12.5922 42.501 11.8498 43.4188ZM45.8668 35.9068C39.6807 44.1544 26.4686 41.3748 17.9969 41.7719C17.9969 41.7719 16.4927 41.863 14.982 42.1104C14.982 42.1104 15.5485 41.8696 16.2843 41.5896C22.2295 39.5196 25.0425 39.116 28.6565 37.2608C35.4612 33.7977 42.1877 26.2205 43.5877 18.3375C40.9961 25.9211 33.143 32.4372 25.9867 35.0866C21.0834 36.8962 12.2275 38.6538 12.2275 38.6538L11.8694 38.465C5.83957 35.5292 5.65725 22.4645 16.6164 18.2463C21.4155 16.3976 26.0062 17.4131 31.1895 16.1763C36.7244 14.8613 43.1254 10.7082 45.7301 5.29228C48.6473 13.9565 52.1571 27.5225 45.8668 35.9068Z" fill="#2B3487"/>
</svg>
