<svg width="51" height="50" viewBox="0 0 51 50" fill="none" xmlns="http://www.w3.org/2000/svg">
<path d="M40.3925 45.9853C40.1675 45.7424 37.5589 42.9678 34.5986 39.821L29.2161 34.0995L31.7718 31.5435L34.3275 28.9874L34.8325 29.4703C35.1111 29.7345 37.8572 32.3817 40.9365 35.3499L46.5354 40.7474L43.6954 43.5874C42.1332 45.1495 40.8436 46.4278 40.8297 46.4278C40.8297 46.4278 40.6189 46.2278 40.3925 45.9853ZM42.7607 41.1403C43.0072 40.3813 43.2022 39.7581 43.1968 39.7549C43.1968 39.7513 42.659 39.366 42.0136 38.8978L40.8404 38.047L39.7032 38.8738C39.0779 39.3285 38.5486 39.717 38.5268 39.7374C38.4768 39.7838 38.4875 39.8124 38.9847 41.3435L39.3743 42.5424H40.8447H42.315L42.7607 41.1631V41.1403ZM13.1736 46.2288C12.4857 46.1038 11.8675 45.8753 11.2797 45.527C10.8932 45.2985 10.1 44.5895 9.80002 44.2038C9.53573 43.861 9.20538 43.1713 9.09109 42.7138C8.96252 42.2045 8.93038 41.1635 9.02323 40.5999L9.09109 40.1917L14.9857 34.297L20.88 28.4028L21.8647 28.5456L22.8489 28.6885L27.9979 23.5113L33.1468 18.3338L33.2825 17.9874C33.6325 17.0967 33.755 16.1217 33.6039 15.4345C33.3361 14.2106 32.4447 13.3585 30.8597 12.8067C30.3604 12.6317 29.5268 12.4531 29.0347 12.4103L28.7097 12.3745L27.3125 10.9767L25.9154 9.57918L28.765 6.72918L31.615 3.87918L33.1914 5.45489L34.7679 7.03061V7.3449C34.7322 7.7824 34.8607 8.47597 35.0179 8.87561C35.4672 10.0306 36.6293 10.7028 38.1765 10.7028H38.4657L38.87 11.0135C42.1454 13.517 44.4172 16.026 45.6629 18.5156C46.1768 19.5431 46.355 20.1192 46.5357 21.3413C46.6393 22.0388 46.6536 22.2567 46.6536 23.2928C46.6561 24.8335 46.5215 25.9613 46.135 27.6328C45.8743 28.7688 45.2232 30.8363 44.9957 31.2617C44.9457 31.3545 44.8922 31.3045 43.8325 30.2474L42.7211 29.1367L42.6854 28.1149C42.6211 25.7531 42.2822 24.0813 41.5886 22.6881C41.1279 21.7631 40.5707 21.1024 39.8222 20.5935C39.1593 20.1431 38.8693 20.0695 38.4707 20.2506C38.3243 20.3149 37.2511 21.3617 33.9579 24.6431C31.5811 27.0113 28.8686 29.712 27.93 30.6445L26.2232 32.3399L26.1125 33.337L26.0018 34.3342L25.5907 34.7513C25.3657 34.9799 22.7743 37.6656 19.8354 40.7178L14.4914 46.267H14.0111C13.7432 46.267 13.3793 46.2313 13.1854 46.2135L13.1736 46.2288ZM19.3011 23.751L17.4397 21.8895L17.0557 22.0431C16.2129 22.3788 15.2679 22.6135 14.3189 22.7228C13.6111 22.8049 12.3511 22.7585 11.7025 22.6156C8.20109 21.8788 5.78073 18.9688 4.51073 13.9692C4.32859 13.256 4.32502 13.2199 4.37145 12.9399C4.46073 12.4178 4.75109 12.142 5.21359 12.1399L5.41716 12.1388L5.6743 12.517C6.79573 14.1528 8.18752 15.3928 9.45788 15.8881C10.0525 16.1203 10.3139 16.1703 10.9264 16.1738C11.3779 16.1756 11.5582 16.1738 11.8475 16.0774C13.0622 15.7488 14.6272 14.4885 15.5572 13.0892C16.1693 12.1681 16.5164 11.287 16.7382 10.0913C16.8204 9.65704 16.8275 9.5374 16.7882 9.32632C16.6132 8.38668 15.2347 6.7199 13.3029 5.11275L12.8979 4.77704L12.895 4.4699C12.895 4.05561 13.0093 3.82847 13.3043 3.67632C13.4864 3.58347 13.5686 3.56918 13.8843 3.57275C14.3311 3.57275 14.6293 3.6549 15.4186 3.9649C16.8914 4.54454 18.3932 5.39168 19.5854 6.31454C20.0997 6.71275 20.9243 7.50847 21.3493 8.01668C23.0193 10.0138 23.5682 12.4188 22.9311 14.9478C22.8132 15.4074 22.5847 16.1038 22.4354 16.452L22.3354 16.6842L24.275 18.6238L26.2143 20.5635L23.6879 23.0895L21.1618 25.616L19.3 23.7542L19.3011 23.751Z" fill="#2B3487"/>
</svg>
