<svg width="35" height="50" viewBox="0 0 35 50" fill="none" xmlns="http://www.w3.org/2000/svg">
<g clip-path="url(#clip0_269_117)">
<path d="M34.0179 4.37523C34.0179 5.5355 32.2824 6.64824 29.1931 7.46868C26.1038 8.28911 21.9138 8.75003 17.5449 8.75003C13.176 8.75003 8.98602 8.28911 5.89673 7.46868C2.80744 6.64824 1.0719 5.5355 1.0719 4.37523C1.0719 3.21496 2.80744 2.10221 5.89673 1.28178C8.98602 0.461342 13.176 0.000427246 17.5449 0.000427246C21.9138 0.000427246 26.1038 0.461342 29.1931 1.28178C32.2824 2.10221 34.0179 3.21496 34.0179 4.37523Z" fill="black"/>
<path d="M1.08459 7.65999C1.08459 7.65999 1.24313 8.76299 4.66144 9.92169C5.59254 10.2373 7.40194 10.6438 8.80424 10.8904C11.0377 11.2831 13.8427 11.5311 17.3477 11.533C19.1903 11.5341 20.8807 11.4894 22.4887 11.3439C24.7516 11.1391 25.1366 11.0624 26.9328 10.7682C28.6502 10.4869 30.2996 9.99967 31.5084 9.51972C33.5958 8.69092 34.0455 7.65997 34.0455 7.65997V16.3565C34.0455 16.3565 32.5224 18.3286 28.355 19.1217C26.8923 19.4 26.3122 19.6641 23.6463 19.9305C21.3302 20.162 18.2808 20.2728 17.3248 20.2732C16.3685 20.2736 13.9677 20.282 10.0543 19.6839C7.68279 19.3214 5.39159 18.8334 4.24629 18.3779C1.94474 17.4619 1.08489 16.3564 1.08489 16.3564L1.08459 7.65999Z" fill="black"/>
<path d="M1.03943 19.1205C1.03943 19.1205 1.19796 20.2235 4.61628 21.3822C5.54738 21.6978 7.35678 22.1043 8.75908 22.3509C10.9926 22.7436 13.7976 22.9916 17.3026 22.9935C19.1451 22.9946 20.8356 22.9499 22.4436 22.8044C24.7065 22.5996 25.0914 22.5229 26.8877 22.2287C28.6051 21.9474 30.2544 21.4602 31.4632 20.9802C33.5507 20.1514 34.0004 19.1205 34.0004 19.1205V27.817C34.0004 27.817 32.4772 29.7891 28.3099 30.5822C26.8471 30.8606 26.2671 31.1246 23.6011 31.391C21.285 31.6225 18.2356 31.7333 17.2796 31.7337C16.3233 31.7341 13.9225 31.7425 10.0091 31.1444C7.63763 30.7824 5.34628 30.2944 4.20113 29.8389C1.89963 28.9229 1.03973 27.8174 1.03973 27.8174L1.03943 19.1205Z" fill="black"/>
<path d="M0.949951 30.887C0.949951 30.887 1.10849 31.99 4.5268 33.1487C5.4579 33.4643 7.2673 33.8708 8.6696 34.1174C10.9031 34.5101 13.7081 34.7581 17.2131 34.76C19.0557 34.7611 20.7461 34.7164 22.3541 34.5709C24.617 34.3661 25.002 34.2893 26.7982 33.9952C28.5156 33.7139 30.165 33.2267 31.3738 32.7467C33.4612 31.9179 33.9109 30.887 33.9109 30.887V39.5835C33.9109 39.5835 32.3878 41.5556 28.2204 42.3487C26.7577 42.627 26.1776 42.8911 23.5117 43.1575C21.1956 43.389 18.1462 43.4998 17.1902 43.5002C16.2339 43.5005 13.8331 43.509 9.91965 42.9109C7.54865 42.5479 5.25735 42.0604 4.11215 41.6044C1.81065 40.6884 0.950751 39.5829 0.950751 39.5829L0.949951 30.887Z" fill="black"/>
</g>
<defs>
<clipPath id="clip0_269_117">
<rect width="33.1" height="50" fill="white" transform="translate(0.949951)"/>
</clipPath>
</defs>
</svg>
