<svg width="40" height="40" viewBox="0 0 40 40" fill="none" xmlns="http://www.w3.org/2000/svg">
<path fill-rule="evenodd" clip-rule="evenodd" d="M19.9984 0C8.95561 0 0 9.18089 0 20.5068C0 29.5655 5.73017 37.252 13.6777 39.9649C14.6784 40.1526 15.043 39.5193 15.043 38.9754C15.043 38.4882 15.0256 37.1992 15.0152 35.4884C9.45201 36.7271 8.27826 32.7391 8.27826 32.7391C7.36845 30.3699 6.05715 29.7393 6.05715 29.7393C4.24123 28.4678 6.19462 28.4929 6.19462 28.4929C8.20207 28.6378 9.25798 30.6065 9.25798 30.6065C11.042 33.7398 13.9396 32.8348 15.079 32.3098C15.2607 30.9855 15.7776 30.0816 16.3485 29.5693C11.9076 29.0506 7.23825 27.292 7.23825 19.4342C7.23825 17.1948 8.01792 15.3656 9.29728 13.9318C9.09089 13.4131 8.40466 11.3284 9.49392 8.50481C9.49392 8.50481 11.1723 7.95347 14.9932 10.6059C16.5882 10.1514 18.2997 9.92484 20.0002 9.91603C21.6995 9.92317 23.4098 10.1515 25.0072 10.6059C28.8256 7.95347 30.5016 8.50481 30.5016 8.50481C31.5931 11.3284 30.9067 13.4131 30.7017 13.9318C31.9835 15.3656 32.757 17.1948 32.757 19.4342C32.757 27.3122 28.0803 29.0455 23.6259 29.5528C24.3429 30.186 24.9826 31.4374 24.9826 33.3509C24.9826 36.0914 24.9582 38.3032 24.9582 38.9754C24.9582 39.5243 25.3192 40.1626 26.3333 39.9624C34.2748 37.2445 40 29.5643 40 20.5068C40 9.18089 31.0444 0 19.9979 0" fill="#32699F"/>
</svg>
