<svg width="41" height="40" viewBox="0 0 41 40" fill="none" xmlns="http://www.w3.org/2000/svg">
<path d="M34.5783 34.0867H28.655V24.805C28.655 22.5917 28.61 19.7433 25.5683 19.7433C22.48 19.7433 22.0083 22.1517 22.0083 24.6417V34.0867H16.085V15H21.775V17.6017H21.8517C22.6467 16.1017 24.58 14.5183 27.4683 14.5183C33.47 14.5183 34.58 18.4683 34.58 23.61V34.0867H34.5783ZM9.395 12.3883C7.48833 12.3883 5.95667 10.845 5.95667 8.94667C5.95667 7.05 7.49 5.50833 9.395 5.50833C11.295 5.50833 12.835 7.05 12.835 8.94667C12.835 10.845 11.2933 12.3883 9.395 12.3883ZM12.365 34.0867H6.425V15H12.365V34.0867ZM37.5417 0H3.45167C1.82 0 0.5 1.29 0.5 2.88167V37.1183C0.5 38.7117 1.82 40 3.45167 40H37.5367C39.1667 40 40.5 38.7117 40.5 37.1183V2.88167C40.5 1.29 39.1667 0 37.5367 0H37.5417Z" fill="white"/>
</svg>
