<svg width="40" height="40" viewBox="0 0 40 40" fill="none" xmlns="http://www.w3.org/2000/svg">
<path d="M34.2365 5.77281C31.2104 2.75605 27.9888 4.71136 25.9683 6.72253L6.89944 25.7914C4.87896 27.8119 2.76536 30.8845 5.94972 34.0596C9.12477 37.2346 12.1881 35.121 14.2086 33.1006L33.2775 14.0317C35.298 12.0205 37.2533 8.78957 34.2365 5.77281ZM16.0149 4.99069L20.0559 9.03166L24.162 4.9162C24.4413 4.63687 24.7207 4.37616 25.0093 4.13408C24.581 1.96462 23.3426 0 20.0466 0C16.7505 0 15.5121 1.97393 15.0931 4.14339C15.4004 4.41341 15.7076 4.68343 16.0149 4.99069ZM24.162 34.9814L20.0559 30.8752L16.0149 34.9069C15.7076 35.2142 15.4097 35.5028 15.1024 35.7635C15.568 37.9795 16.8715 40 20.0466 40C23.2309 40 24.5438 37.9609 25 35.7449C24.7207 35.5028 24.4413 35.2607 24.162 34.9814ZM14.3017 14.7765H6.51769C3.65922 14.7765 0 15.6797 0 19.9441C0 23.1378 2.03911 24.4413 4.26443 24.8976C4.52514 24.5996 14.3017 14.7765 14.3017 14.7765ZM35.8566 14.9907C35.6145 15.27 25.8101 25.121 25.8101 25.121H33.4823C36.3408 25.121 40 24.4413 40 19.9441C40 16.6574 38.0354 15.419 35.8566 14.9907ZM16.8529 12.2253L18.2402 10.838L14.2086 6.79702C12.1881 4.77654 9.12477 2.66294 5.94041 5.8473C3.61266 8.17505 4.13408 10.4469 5.36313 12.2812C5.74488 12.2533 16.8529 12.2253 16.8529 12.2253ZM23.2495 27.6723L21.8529 29.0689L25.9683 33.175C27.9888 35.1955 31.2104 37.1508 34.2272 34.1341C36.4804 31.8808 35.9683 29.5065 34.7207 27.6164C34.3203 27.6443 23.2495 27.6723 23.2495 27.6723Z" fill="#32699F"/>
</svg>
