<svg width="51" height="50" viewBox="0 0 51 50" fill="none" xmlns="http://www.w3.org/2000/svg">
<g clip-path="url(#clip0_225_778)">
<path d="M21.0411 24.9505C21.0411 22.4852 23.0436 20.4827 25.5089 20.4827C27.9742 20.4827 29.9767 22.4852 29.9767 24.9505C29.9767 27.4158 27.9742 29.4183 25.5089 29.4183C23.0436 29.4183 21.0411 27.4158 21.0411 24.9505ZM50.5 24.9505C50.5 28.021 46.8777 31.127 41.0393 33.0583C40.7367 33.1562 40.4252 33.2541 40.1048 33.352C40.2205 33.8059 40.3184 34.2509 40.4074 34.687C40.9503 37.446 41.0393 40.0092 40.6566 42.0918C40.2472 44.3079 39.3216 45.8832 37.9866 46.6575C37.3191 47.0491 36.5271 47.2449 35.646 47.2449C33.2252 47.2449 30.1547 45.7853 26.9507 43.0263C26.4968 42.6347 26.0518 42.2253 25.5979 41.7892C25.2508 42.1274 24.9037 42.4478 24.5566 42.7504C22.4384 44.6016 20.2579 45.9544 18.2643 46.6575C17.223 47.0313 16.244 47.2182 15.3718 47.2182C14.464 47.2182 13.663 47.0224 12.9866 46.6308C10.4324 45.1534 9.54236 40.8992 10.6193 35.2477C10.7261 34.6692 10.8596 34.0729 11.0109 33.4677C10.5392 33.3342 10.0853 33.1918 9.64916 33.0405C6.98807 32.1327 4.72748 30.9223 3.11659 29.5429C1.4078 28.0833 0.5 26.4902 0.5 24.9505C0.5 21.9957 3.73959 19.1032 9.17746 17.2164C9.77376 17.0117 10.3968 16.8159 11.0376 16.629C10.8952 16.0683 10.7706 15.5165 10.6638 14.9736C10.1387 12.2858 10.0408 9.82053 10.379 7.83584C10.7528 5.67315 11.6339 4.13345 12.9421 3.37696C15.5943 1.83726 20.1066 3.42146 24.699 7.50654C24.9749 7.75574 25.2508 8.01384 25.5356 8.28084C25.9539 7.88034 26.3722 7.49764 26.7816 7.13274C28.8464 5.33495 30.9379 4.01775 32.8247 3.32356C34.8806 2.56706 36.6606 2.56706 37.9599 3.31466C40.621 4.84545 41.5021 9.54463 40.2561 15.561C40.1849 15.9259 40.0959 16.2908 40.0069 16.6646C40.5587 16.8248 41.0927 16.9939 41.6089 17.1719C44.1988 18.0619 46.3793 19.2189 47.9279 20.5005C49.61 21.9067 50.5 23.4464 50.5 24.9505ZM27.0308 9.80273C28.4548 11.3335 29.8788 13.1135 31.2494 15.0715C33.6079 15.294 35.8596 15.65 37.9421 16.1306C38.0222 15.7924 38.1023 15.4631 38.1646 15.1338C39.3305 9.46453 38.3248 5.99355 36.892 5.16585C36.1622 4.74755 34.9785 4.80095 33.5545 5.32605C31.908 5.93125 30.0479 7.11494 28.1789 8.74363C27.7962 9.07293 27.4135 9.42893 27.0308 9.80273ZM13.6541 31.928C15.0781 32.2395 16.6178 32.4887 18.2554 32.6667C17.7214 31.8301 17.1963 30.9757 16.689 30.1035C16.1906 29.2492 15.7189 28.3859 15.2739 27.5226C14.642 29.0178 14.0902 30.504 13.6541 31.928ZM16.689 19.9042C17.1874 19.0498 17.6947 18.2043 18.2198 17.3855C16.6356 17.5813 15.1137 17.8483 13.6808 18.1598C14.1169 19.566 14.6509 21.0167 15.2739 22.4941C15.7189 21.6308 16.1906 20.7675 16.689 19.9042ZM18.5402 29.0356C19.3145 30.3705 20.1333 31.6699 20.9877 32.907C22.4384 32.996 23.9514 33.0494 25.5089 33.0494C27.0753 33.0494 28.6061 32.996 30.0835 32.8892C30.8934 31.6699 31.6944 30.3794 32.4865 29.0178C33.2697 27.665 33.9906 26.3033 34.6403 24.9683C33.9906 23.66 33.2786 22.325 32.4865 20.9633C31.7122 19.6194 30.9023 18.3378 30.0746 17.1096C28.5883 16.9939 27.0575 16.9405 25.5089 16.9405C23.9781 16.9405 22.4473 17.0028 20.9521 17.1185C20.1155 18.3467 19.2967 19.6372 18.5313 20.9722C17.7659 22.2983 17.0539 23.6511 16.4042 25.0039C17.0539 26.3478 17.7659 27.7006 18.5402 29.0356ZM32.8069 32.6311C34.4534 32.4353 36.0198 32.1683 37.4704 31.839C37.0255 30.4417 36.4648 28.9644 35.7884 27.4336C35.3345 28.3147 34.845 29.2047 34.3377 30.0857C33.8304 30.9579 33.3231 31.8123 32.8069 32.6311ZM37.3637 18.1865C35.9219 17.8572 34.3911 17.5902 32.798 17.3855C33.3142 18.1954 33.8215 19.032 34.3199 19.8864C34.8272 20.7675 35.3078 21.6397 35.7617 22.4941C36.3936 21.0167 36.9365 19.566 37.3637 18.1865ZM22.563 14.8757C23.5331 14.8312 24.5121 14.8045 25.5 14.8045C26.5057 14.8045 27.4936 14.8312 28.4815 14.8757C27.5114 13.5852 26.5235 12.3926 25.5356 11.3246C24.5299 12.4015 23.5331 13.5941 22.563 14.8757ZM12.7642 14.5642C12.8621 15.0715 12.9777 15.5788 13.1112 16.1039C15.1849 15.6322 17.4366 15.2851 19.7951 15.0626C21.1657 13.1313 22.5986 11.3602 24.0493 9.79383C23.8001 9.55353 23.5509 9.32213 23.3017 9.10853C18.9585 5.26375 15.4519 4.40045 14.019 5.22815C13.2892 5.64645 12.7463 6.70554 12.4883 8.20074C12.1946 9.92733 12.2836 12.1345 12.7642 14.5642ZM14.0457 25.0128C13.0578 22.859 12.2302 20.7319 11.6072 18.6938C11.0109 18.8629 10.4413 19.0409 9.88946 19.2367C4.88768 20.9811 2.64489 23.3663 2.64489 24.9594C2.64489 26.6148 5.05678 29.2225 10.3434 31.0291C10.7439 31.1626 11.1533 31.2961 11.5805 31.4207C12.2124 29.3471 13.04 27.1933 14.0457 25.0128ZM24.1027 40.2673C22.6342 38.7009 21.1924 36.912 19.8129 34.9629C17.3743 34.7671 15.1137 34.4378 13.0845 33.9839C12.9421 34.5535 12.8265 35.1053 12.7197 35.6393C11.7318 40.8458 12.6841 43.9786 14.0546 44.7707C15.4875 45.5984 18.9496 44.8152 23.1593 41.1306C23.4619 40.8636 23.7823 40.5699 24.1027 40.2673ZM28.526 35.1142C27.5381 35.1587 26.5235 35.1854 25.5089 35.1854C24.5121 35.1854 23.542 35.1676 22.5897 35.132C23.5776 36.4314 24.5833 37.6329 25.5979 38.7276C26.568 37.6507 27.5559 36.4492 28.526 35.1142ZM38.3248 35.1053C38.2447 34.7048 38.1557 34.3043 38.0489 33.886C35.9842 34.3666 33.7058 34.7137 31.285 34.9273C29.9055 36.9298 28.4904 38.7187 27.0931 40.2495C27.5114 40.6589 27.9386 41.0416 28.348 41.3976C32.3619 44.8508 35.5481 45.5984 36.9276 44.7974C38.3604 43.9786 39.4106 40.5877 38.3248 35.1053ZM48.3729 24.9505C48.3729 24.105 47.7321 23.1082 46.5662 22.1381C45.2223 21.0167 43.2643 19.9932 40.9236 19.1833C40.443 19.0231 39.9446 18.8629 39.4373 18.7116C38.8232 20.6963 38.0044 22.8056 36.9988 24.9594C38.0489 27.1755 38.9033 29.3026 39.5263 31.2872C39.8111 31.1982 40.0959 31.1092 40.3718 31.0202C45.8631 29.2047 48.3729 26.597 48.3729 24.9505Z" fill="#2B3487"/>
</g>
<defs>
<clipPath id="clip0_225_778">
<rect width="50" height="50" fill="white" transform="translate(0.5)"/>
</clipPath>
</defs>
</svg>
